<svg width="108" height="108" viewBox="0 0 108 108" fill="none" xmlns="http://www.w3.org/2000/svg">
<g filter="url(#filter0_d_1_8)">
<rect x="4" width="100" height="100" rx="15" fill="white"/>
</g>
<g filter="url(#filter1_d_1_8)">
<path d="M66.0803 9.32299C75.9083 9.32299 83.5913 11.663 89.1293 16.343C94.6673 20.945 97.4363 27.614 97.4363 36.35C97.4363 40.484 96.8123 44.93 95.5643 49.688C93.2243 58.424 89.5973 65.834 84.6833 71.918C79.7693 78.002 73.9193 82.604 67.1333 85.724C60.3473 88.844 52.9763 90.404 45.0203 90.404C35.2703 90.404 27.6263 88.103 22.0883 83.501C16.5503 78.821 13.7813 72.113 13.7813 63.377C13.7813 59.399 14.4443 54.836 15.7703 49.688C18.0323 41.03 21.5813 33.698 26.4173 27.692C31.3313 21.608 37.1423 17.045 43.8503 14.003C50.6363 10.883 58.0463 9.32299 66.0803 9.32299ZM63.9743 20.789C61.6343 20.789 59.5283 21.725 57.6563 23.597C55.7843 25.469 53.9123 28.55 52.0403 32.84C50.2463 37.052 48.2963 42.941 46.1903 50.507C43.0703 61.427 41.5103 68.954 41.5103 73.088C41.5103 75.506 41.9393 77.261 42.7973 78.353C43.6553 79.445 45.0203 79.991 46.8923 79.991C49.2323 79.991 51.3383 79.055 53.2103 77.183C55.0823 75.233 56.9153 72.152 58.7093 67.94C60.5033 63.728 62.4923 57.917 64.6763 50.507C67.7183 39.743 69.2393 32.177 69.2393 27.809C69.2393 25.313 68.8103 23.519 67.9523 22.427C67.0943 21.335 65.7683 20.789 63.9743 20.789Z" fill="#101010"/>
</g>
<defs>
<filter id="filter0_d_1_8" x="0" y="0" width="108" height="108" filterUnits="userSpaceOnUse" color-interpolation-filters="sRGB">
<feFlood flood-opacity="0" result="BackgroundImageFix"/>
<feColorMatrix in="SourceAlpha" type="matrix" values="0 0 0 0 0 0 0 0 0 0 0 0 0 0 0 0 0 0 127 0" result="hardAlpha"/>
<feOffset dy="4"/>
<feGaussianBlur stdDeviation="2"/>
<feComposite in2="hardAlpha" operator="out"/>
<feColorMatrix type="matrix" values="0 0 0 0 0 0 0 0 0 0 0 0 0 0 0 0 0 0 0.25 0"/>
<feBlend mode="normal" in2="BackgroundImageFix" result="effect1_dropShadow_1_8"/>
<feBlend mode="normal" in="SourceGraphic" in2="effect1_dropShadow_1_8" result="shape"/>
</filter>
<filter id="filter1_d_1_8" x="0" y="9" width="105" height="99" filterUnits="userSpaceOnUse" color-interpolation-filters="sRGB">
<feFlood flood-opacity="0" result="BackgroundImageFix"/>
<feColorMatrix in="SourceAlpha" type="matrix" values="0 0 0 0 0 0 0 0 0 0 0 0 0 0 0 0 0 0 127 0" result="hardAlpha"/>
<feOffset dy="4"/>
<feGaussianBlur stdDeviation="2"/>
<feComposite in2="hardAlpha" operator="out"/>
<feColorMatrix type="matrix" values="0 0 0 0 0 0 0 0 0 0 0 0 0 0 0 0 0 0 0.25 0"/>
<feBlend mode="normal" in2="BackgroundImageFix" result="effect1_dropShadow_1_8"/>
<feBlend mode="normal" in="SourceGraphic" in2="effect1_dropShadow_1_8" result="shape"/>
</filter>
</defs>
</svg>
